<svg width="195" height="37" viewBox="0 0 195 37" fill="none" xmlns="http://www.w3.org/2000/svg">
<g clip-path="url(#clip0)">
<path d="M20.2107 0.539326C16.7919 -0.368329 13.166 -0.132153 9.89685 1.21112C6.62773 2.55438 3.89871 4.92944 2.13429 7.96684C0.369871 11.0042 -0.331025 14.5337 0.140625 18.0062C0.612276 21.4787 2.23003 24.6996 4.74225 27.1678L22.6286 9.4656C23.2974 8.80315 23.7782 7.97812 24.0229 7.07343C24.2675 6.16874 24.2673 5.21625 24.0223 4.31167C23.7773 3.40708 23.296 2.58226 22.627 1.92009C21.9579 1.25791 21.1246 0.781711 20.2107 0.539326Z" fill="url(#paint0_linear)"/>
<path d="M6.78875 36.4601C10.2096 37.3707 13.8386 37.1359 17.1107 35.7925C20.3827 34.449 23.1142 32.0723 24.8796 29.0323C26.6451 25.9923 27.3455 22.4597 26.8717 18.9847C26.398 15.5097 24.7767 12.2873 22.2603 9.81934L4.37394 27.5338C3.70514 28.196 3.22416 29.0208 2.97933 29.9253C2.7345 30.8298 2.73443 31.7822 2.97913 32.6867C3.22383 33.5913 3.70469 34.4161 4.3734 35.0785C5.0421 35.7408 5.87512 36.2173 6.78875 36.4601Z" fill="url(#paint1_linear)"/>
<path style="mix-blend-mode:multiply" d="M22.2603 9.81934L4.37394 27.5338C3.70514 28.196 3.22416 29.0208 2.97933 29.9253C2.7345 30.8298 2.73443 31.7822 2.97913 32.6867C3.22383 33.5913 3.70469 34.4161 4.3734 35.0785C5.0421 35.7408 5.87512 36.2173 6.78875 36.4601C8.70142 36.965 10.6917 37.1169 12.6599 36.9081C4.81723 29.4393 22.2603 9.81934 22.2603 9.81934Z" fill="url(#paint2_linear)"/>
<g style="mix-blend-mode:multiply">
<path style="mix-blend-mode:multiply" d="M6.46017 36.3617C3.92136 28.58 19.1697 12.9092 21.8604 10.2273L4.37395 27.5336C3.72563 28.1755 3.25344 28.9705 3.00202 29.8433C2.7506 30.7162 2.72826 31.6381 2.93711 32.5219C3.14597 33.4057 3.57912 34.2222 4.19559 34.8941C4.81207 35.566 5.5915 36.0711 6.46017 36.3617Z" fill="url(#paint3_linear)"/>
<path style="mix-blend-mode:multiply" d="M22.2014 9.88984C22.22 9.86941 22.2396 9.84995 22.2603 9.83154L22.2014 9.88984Z" fill="url(#paint4_linear)"/>
</g>
<path style="mix-blend-mode:screen" d="M23.9404 7.3645L4.72113 27.1563L22.6292 9.46643C23.2273 8.87775 23.6766 8.15757 23.9404 7.3645Z" fill="url(#paint5_radial)"/>
<path d="M40.524 27.108C39.276 27.108 38.148 26.832 37.14 26.28C36.144 25.728 35.358 24.966 34.782 23.994C34.218 23.01 33.936 21.912 33.936 20.7C33.936 19.488 34.218 18.396 34.782 17.424C35.358 16.44 36.15 15.672 37.158 15.12C38.166 14.568 39.294 14.292 40.542 14.292C41.478 14.292 42.342 14.448 43.134 14.76C43.926 15.072 44.598 15.528 45.15 16.128L44.304 16.974C43.32 15.978 42.078 15.48 40.578 15.48C39.582 15.48 38.676 15.708 37.86 16.164C37.044 16.62 36.402 17.244 35.934 18.036C35.478 18.828 35.25 19.716 35.25 20.7C35.25 21.684 35.478 22.572 35.934 23.364C36.402 24.156 37.044 24.78 37.86 25.236C38.676 25.692 39.582 25.92 40.578 25.92C42.09 25.92 43.332 25.416 44.304 24.408L45.15 25.254C44.598 25.854 43.92 26.316 43.116 26.64C42.324 26.952 41.46 27.108 40.524 27.108ZM53.2338 27.108C51.9858 27.108 50.8518 26.832 49.8318 26.28C48.8238 25.716 48.0318 24.948 47.4558 23.976C46.8918 23.004 46.6098 21.912 46.6098 20.7C46.6098 19.488 46.8918 18.396 47.4558 17.424C48.0318 16.452 48.8238 15.69 49.8318 15.138C50.8518 14.574 51.9858 14.292 53.2338 14.292C54.4818 14.292 55.6038 14.568 56.5998 15.12C57.6078 15.672 58.3998 16.44 58.9758 17.424C59.5518 18.396 59.8398 19.488 59.8398 20.7C59.8398 21.912 59.5518 23.01 58.9758 23.994C58.3998 24.966 57.6078 25.728 56.5998 26.28C55.6038 26.832 54.4818 27.108 53.2338 27.108ZM53.2338 25.92C54.2298 25.92 55.1298 25.698 55.9338 25.254C56.7378 24.798 57.3678 24.174 57.8238 23.382C58.2798 22.578 58.5078 21.684 58.5078 20.7C58.5078 19.716 58.2798 18.828 57.8238 18.036C57.3678 17.232 56.7378 16.608 55.9338 16.164C55.1298 15.708 54.2298 15.48 53.2338 15.48C52.2378 15.48 51.3318 15.708 50.5158 16.164C49.7118 16.608 49.0758 17.232 48.6078 18.036C48.1518 18.828 47.9238 19.716 47.9238 20.7C47.9238 21.684 48.1518 22.578 48.6078 23.382C49.0758 24.174 49.7118 24.798 50.5158 25.254C51.3318 25.698 52.2378 25.92 53.2338 25.92ZM62.8254 14.4H67.9554C69.2874 14.4 70.4634 14.67 71.4834 15.21C72.5034 15.738 73.2954 16.482 73.8594 17.442C74.4234 18.39 74.7054 19.476 74.7054 20.7C74.7054 21.924 74.4234 23.016 73.8594 23.976C73.2954 24.924 72.5034 25.668 71.4834 26.208C70.4634 26.736 69.2874 27 67.9554 27H62.8254V14.4ZM67.8834 25.848C68.9874 25.848 69.9534 25.632 70.7814 25.2C71.6094 24.756 72.2514 24.15 72.7074 23.382C73.1634 22.602 73.3914 21.708 73.3914 20.7C73.3914 19.692 73.1634 18.804 72.7074 18.036C72.2514 17.256 71.6094 16.65 70.7814 16.218C69.9534 15.774 68.9874 15.552 67.8834 15.552H64.1574V25.848H67.8834ZM77.6965 14.4H79.0285V27H77.6965V14.4ZM93.6582 14.4V27H92.5602L84.4602 16.776V27H83.1282V14.4H84.2262L92.3442 24.624V14.4H93.6582ZM106.645 20.7H107.923V25.506C107.335 26.022 106.639 26.418 105.835 26.694C105.031 26.97 104.185 27.108 103.297 27.108C102.037 27.108 100.903 26.832 99.8948 26.28C98.8868 25.728 98.0948 24.966 97.5188 23.994C96.9428 23.01 96.6548 21.912 96.6548 20.7C96.6548 19.488 96.9428 18.396 97.5188 17.424C98.0948 16.44 98.8868 15.672 99.8948 15.12C100.903 14.568 102.043 14.292 103.315 14.292C104.275 14.292 105.157 14.448 105.961 14.76C106.765 15.06 107.443 15.51 107.995 16.11L107.167 16.956C106.171 15.972 104.905 15.48 103.369 15.48C102.349 15.48 101.425 15.708 100.597 16.164C99.7808 16.608 99.1388 17.232 98.6708 18.036C98.2028 18.828 97.9688 19.716 97.9688 20.7C97.9688 21.684 98.2028 22.572 98.6708 23.364C99.1388 24.156 99.7808 24.78 100.597 25.236C101.413 25.692 102.331 25.92 103.351 25.92C104.647 25.92 105.745 25.596 106.645 24.948V20.7ZM116.404 14.4H121.534C122.866 14.4 124.042 14.67 125.062 15.21C126.082 15.738 126.874 16.482 127.438 17.442C128.002 18.39 128.284 19.476 128.284 20.7C128.284 21.924 128.002 23.016 127.438 23.976C126.874 24.924 126.082 25.668 125.062 26.208C124.042 26.736 122.866 27 121.534 27H116.404V14.4ZM121.462 25.848C122.566 25.848 123.532 25.632 124.36 25.2C125.188 24.756 125.83 24.15 126.286 23.382C126.742 22.602 126.97 21.708 126.97 20.7C126.97 19.692 126.742 18.804 126.286 18.036C125.83 17.256 125.188 16.65 124.36 16.218C123.532 15.774 122.566 15.552 121.462 15.552H117.736V25.848H121.462ZM139.001 23.634H131.981L130.469 27H129.083L134.843 14.4H136.157L141.917 27H140.513L139.001 23.634ZM138.515 22.554L135.491 15.786L132.467 22.554H138.515ZM160.649 14.4L156.401 27H154.997L151.307 16.254L147.599 27H146.213L141.965 14.4H143.333L146.969 25.236L150.731 14.4H151.973L155.681 25.29L159.371 14.4H160.649Z" fill="black"/>
<path d="M37.14 26.28L36.8976 26.7173L36.8998 26.7185L37.14 26.28ZM34.782 23.994L34.3482 24.2427L34.3519 24.2489L34.782 23.994ZM34.782 17.424L34.3505 17.1714L34.3495 17.1731L34.782 17.424ZM37.158 15.12L36.9178 14.6815L36.9178 14.6815L37.158 15.12ZM43.134 14.76L42.9507 15.2252L42.9507 15.2252L43.134 14.76ZM45.15 16.128L45.5036 16.4816L45.8427 16.1424L45.518 15.7895L45.15 16.128ZM44.304 16.974L43.9483 17.3254L44.3019 17.6833L44.6576 17.3276L44.304 16.974ZM37.86 16.164L37.6161 15.7275L37.6161 15.7275L37.86 16.164ZM35.934 18.036L35.5035 17.7816L35.5007 17.7865L35.934 18.036ZM35.934 23.364L35.5007 23.6135L35.5035 23.6184L35.934 23.364ZM37.86 25.236L37.6161 25.6725L37.6161 25.6725L37.86 25.236ZM44.304 24.408L44.6576 24.0544L44.2975 23.6944L43.9441 24.0609L44.304 24.408ZM45.15 25.254L45.518 25.5925L45.8427 25.2396L45.5036 24.9004L45.15 25.254ZM43.116 26.64L43.2993 27.1052L43.3029 27.1038L43.116 26.64ZM40.524 26.608C39.3525 26.608 38.3083 26.3497 37.3802 25.8415L36.8998 26.7185C37.9877 27.3143 39.1995 27.608 40.524 27.608V26.608ZM37.3824 25.8427C36.4634 25.3334 35.7425 24.6341 35.2121 23.7391L34.3519 24.2489C34.9735 25.2979 35.8246 26.1226 36.8976 26.7173L37.3824 25.8427ZM35.2158 23.7454C34.6982 22.8422 34.436 21.831 34.436 20.7H33.436C33.436 21.993 33.7378 23.1778 34.3482 24.2426L35.2158 23.7454ZM34.436 20.7C34.436 19.569 34.6982 18.5648 35.2145 17.6749L34.3495 17.1731C33.7378 18.2272 33.436 19.407 33.436 20.7H34.436ZM35.2135 17.6766C35.7434 16.7714 36.4689 16.0674 37.3982 15.5585L36.9178 14.6815C35.8311 15.2766 34.9726 16.1086 34.3505 17.1714L35.2135 17.6766ZM37.3982 15.5585C38.3263 15.0503 39.3705 14.792 40.542 14.792V13.792C39.2175 13.792 38.0057 14.0857 36.9178 14.6815L37.3982 15.5585ZM40.542 14.792C41.4215 14.792 42.2227 14.9384 42.9507 15.2252L43.3173 14.2948C42.4613 13.9576 41.5345 13.792 40.542 13.792V14.792ZM42.9507 15.2252C43.6756 15.5107 44.2835 15.9246 44.782 16.4665L45.518 15.7895C44.9125 15.1314 44.1764 14.6333 43.3173 14.2948L42.9507 15.2252ZM44.7964 15.7744L43.9504 16.6204L44.6576 17.3276L45.5036 16.4816L44.7964 15.7744ZM44.6597 16.6226C43.5746 15.5242 42.2011 14.98 40.578 14.98V15.98C41.9549 15.98 43.0654 16.4318 43.9483 17.3254L44.6597 16.6226ZM40.578 14.98C39.5024 14.98 38.5115 15.2271 37.6161 15.7275L38.1039 16.6005C38.8405 16.1889 39.6616 15.98 40.578 15.98V14.98ZM37.6161 15.7275C36.7242 16.2259 36.0173 16.9122 35.5035 17.7816L36.3645 18.2904C36.7867 17.5758 37.3638 17.0141 38.1039 16.6005L37.6161 15.7275ZM35.5007 17.7865C34.9977 18.6602 34.75 19.6354 34.75 20.7H35.75C35.75 19.7966 35.9583 18.9958 36.3673 18.2855L35.5007 17.7865ZM34.75 20.7C34.75 21.7646 34.9977 22.7398 35.5007 23.6135L36.3673 23.1145C35.9583 22.4042 35.75 21.6034 35.75 20.7H34.75ZM35.5035 23.6184C36.0173 24.4878 36.7242 25.1741 37.6161 25.6725L38.1039 24.7995C37.3638 24.3859 36.7867 23.8242 36.3645 23.1096L35.5035 23.6184ZM37.6161 25.6725C38.5115 26.1729 39.5024 26.42 40.578 26.42V25.42C39.6616 25.42 38.8405 25.2111 38.1039 24.7995L37.6161 25.6725ZM40.578 26.42C42.2137 26.42 43.5897 25.8691 44.6639 24.7551L43.9441 24.0609C43.0744 24.9629 41.9663 25.42 40.578 25.42V26.42ZM43.9504 24.7616L44.7964 25.6076L45.5036 24.9004L44.6576 24.0544L43.9504 24.7616ZM44.782 24.9155C44.2835 25.4574 43.6686 25.8782 42.9291 26.1762L43.3029 27.1038C44.1714 26.7538 44.9125 26.2506 45.518 25.5925L44.782 24.9155ZM42.9327 26.1748C42.2047 26.4616 41.4035 26.608 40.524 26.608V27.608C41.5165 27.608 42.4433 27.4424 43.2993 27.1052L42.9327 26.1748ZM49.8318 26.28L49.5877 26.7164L49.5939 26.7197L49.8318 26.28ZM47.4558 23.976L47.0233 24.2269L47.0257 24.2309L47.4558 23.976ZM47.4558 17.424L47.0257 17.1691L47.0234 17.1731L47.4558 17.424ZM49.8318 15.138L50.072 15.5766L50.0738 15.5756L49.8318 15.138ZM56.5998 15.12L56.3575 15.5573L56.3597 15.5585L56.5998 15.12ZM58.9758 17.424L58.5443 17.6766L58.5457 17.6789L58.9758 17.424ZM58.9758 23.994L59.406 24.2489L59.4073 24.2466L58.9758 23.994ZM56.5998 26.28L56.3597 25.8414L56.3575 25.8427L56.5998 26.28ZM55.9338 25.254L56.1756 25.6917L56.1805 25.6889L55.9338 25.254ZM57.8238 23.382L58.2571 23.6315L58.2587 23.6287L57.8238 23.382ZM57.8238 18.036L57.3889 18.2827L57.3905 18.2855L57.8238 18.036ZM55.9338 16.164L55.6871 16.5989L55.6921 16.6017L55.9338 16.164ZM50.5158 16.164L50.7575 16.6017L50.7597 16.6005L50.5158 16.164ZM48.6078 18.036L48.1757 17.7845L48.1745 17.7865L48.6078 18.036ZM48.6078 23.382L48.1728 23.6287L48.1774 23.6364L48.6078 23.382ZM50.5158 25.254L50.2691 25.689L50.2769 25.6932L50.5158 25.254ZM53.2338 26.608C52.0624 26.608 51.0112 26.3497 50.0698 25.8403L49.5939 26.7197C50.6924 27.3143 51.9092 27.608 53.2338 27.608V26.608ZM50.076 25.8437C49.1431 25.3217 48.416 24.6155 47.886 23.7211L47.0257 24.2309C47.6476 25.2805 48.5046 26.1103 49.5877 26.7163L50.076 25.8437ZM47.8883 23.7251C47.372 22.8352 47.1098 21.831 47.1098 20.7H46.1098C46.1098 21.993 46.4117 23.1728 47.0234 24.2269L47.8883 23.7251ZM47.1098 20.7C47.1098 19.569 47.372 18.5648 47.8883 17.6749L47.0234 17.1731C46.4117 18.2272 46.1098 19.407 46.1098 20.7H47.1098ZM47.886 17.6789C48.4154 16.7854 49.1412 16.0863 50.072 15.5765L49.5917 14.6995C48.5064 15.2937 47.6482 16.1186 47.0257 17.1691L47.886 17.6789ZM50.0738 15.5756C51.0145 15.0554 52.0643 14.792 53.2338 14.792V13.792C51.9074 13.792 50.6892 14.0926 49.5899 14.7004L50.0738 15.5756ZM53.2338 14.792C54.4054 14.792 55.4426 15.0503 56.3575 15.5573L56.8422 14.6827C55.7651 14.0857 54.5583 13.792 53.2338 13.792V14.792ZM56.3597 15.5585C57.2889 16.0674 58.0145 16.7714 58.5443 17.6766L59.4073 17.1714C58.7852 16.1086 57.9268 15.2766 56.84 14.6815L56.3597 15.5585ZM58.5457 17.6789C59.0726 18.5681 59.3398 19.5709 59.3398 20.7H60.3398C60.3398 19.4051 60.031 18.2239 59.406 17.1691L58.5457 17.6789ZM59.3398 20.7C59.3398 21.829 59.0726 22.8389 58.5443 23.7414L59.4073 24.2466C60.031 23.1811 60.3398 21.995 60.3398 20.7H59.3398ZM58.5457 23.7391C58.0162 24.6326 57.2904 25.3317 56.3597 25.8415L56.84 26.7185C57.9252 26.1243 58.7834 25.2994 59.406 24.2489L58.5457 23.7391ZM56.3575 25.8427C55.4426 26.3497 54.4054 26.608 53.2338 26.608V27.608C54.5583 27.608 55.7651 27.3143 56.8422 26.7173L56.3575 25.8427ZM53.2338 26.42C54.307 26.42 55.2914 26.18 56.1755 25.6917L55.6921 24.8163C54.9683 25.216 54.1526 25.42 53.2338 25.42V26.42ZM56.1805 25.6889C57.0612 25.1894 57.7561 24.5018 58.2571 23.6315L57.3905 23.1325C56.9796 23.8462 56.4144 24.4066 55.6872 24.8191L56.1805 25.6889ZM58.2587 23.6287C58.7602 22.7446 59.0078 21.7647 59.0078 20.7H58.0078C58.0078 21.6033 57.7995 22.4114 57.3889 23.1353L58.2587 23.6287ZM59.0078 20.7C59.0078 19.6354 58.7602 18.6602 58.2571 17.7865L57.3905 18.2855C57.7995 18.9958 58.0078 19.7966 58.0078 20.7H59.0078ZM58.2587 17.7893C57.7575 16.9056 57.0609 16.2152 56.1755 15.7263L55.6921 16.6017C56.4148 17.0008 56.9781 17.5584 57.3889 18.2827L58.2587 17.7893ZM56.1805 15.7291C55.2955 15.2271 54.3094 14.98 53.2338 14.98V15.98C54.1503 15.98 54.9642 16.1889 55.6872 16.5989L56.1805 15.7291ZM53.2338 14.98C52.1582 14.98 51.1674 15.2271 50.2719 15.7275L50.7597 16.6005C51.4963 16.1889 52.3174 15.98 53.2338 15.98V14.98ZM50.2741 15.7263C49.3899 16.2146 48.6886 16.9034 48.1757 17.7845L49.04 18.2875C49.4631 17.5606 50.0337 17.0014 50.7575 16.6017L50.2741 15.7263ZM48.1745 17.7865C47.6715 18.6602 47.4238 19.6354 47.4238 20.7H48.4238C48.4238 19.7966 48.6322 18.9958 49.0411 18.2855L48.1745 17.7865ZM47.4238 20.7C47.4238 21.7647 47.6715 22.7446 48.1729 23.6287L49.0427 23.1353C48.6322 22.4114 48.4238 21.6033 48.4238 20.7H47.4238ZM48.1774 23.6364C48.69 24.5039 49.3896 25.19 50.2692 25.6889L50.7625 24.8191C50.0341 24.406 49.4616 23.8441 49.0383 23.1276L48.1774 23.6364ZM50.2769 25.6932C51.1714 26.18 52.1605 26.42 53.2338 26.42V25.42C52.3151 25.42 51.4922 25.216 50.7548 24.8148L50.2769 25.6932ZM62.8254 14.4V13.9H62.3254V14.4H62.8254ZM71.4834 15.21L71.2495 15.6519L71.2536 15.654L71.4834 15.21ZM73.8594 17.442L73.4283 17.6953L73.4297 17.6976L73.8594 17.442ZM73.8594 23.976L74.2891 24.2317L74.2905 24.2293L73.8594 23.976ZM71.4834 26.208L71.7133 26.6521L71.7174 26.6499L71.4834 26.208ZM62.8254 27H62.3254V27.5H62.8254V27ZM70.7814 25.2L71.0127 25.6433L71.0177 25.6406L70.7814 25.2ZM72.7074 23.382L73.1374 23.6373L73.1391 23.6343L72.7074 23.382ZM72.7074 18.036L72.2758 18.2884L72.2775 18.2913L72.7074 18.036ZM70.7814 16.218L70.5451 16.6587L70.5502 16.6613L70.7814 16.218ZM64.1574 15.552V15.052H63.6574V15.552H64.1574ZM64.1574 25.848H63.6574V26.348H64.1574V25.848ZM62.8254 14.9H67.9554V13.9H62.8254V14.9ZM67.9554 14.9C69.2185 14.9 70.312 15.1556 71.2495 15.6519L71.7174 14.7681C70.6149 14.1844 69.3563 13.9 67.9554 13.9V14.9ZM71.2536 15.654C72.1926 16.1401 72.9137 16.8192 73.4283 17.6953L74.2905 17.1887C73.6772 16.1448 72.8142 15.3359 71.7133 14.766L71.2536 15.654ZM73.4297 17.6976C73.9428 18.56 74.2054 19.5559 74.2054 20.7H75.2054C75.2054 19.3961 74.9041 18.22 74.2891 17.1864L73.4297 17.6976ZM74.2054 20.7C74.2054 21.844 73.9428 22.847 73.4283 23.7227L74.2905 24.2293C74.9041 23.185 75.2054 22.004 75.2054 20.7H74.2054ZM73.4297 23.7204C72.9149 24.5857 72.1923 25.267 71.2495 25.7661L71.7174 26.6499C72.8146 26.069 73.676 25.2623 74.2891 24.2316L73.4297 23.7204ZM71.2536 25.764C70.3152 26.2497 69.2203 26.5 67.9554 26.5V27.5C69.3546 27.5 70.6117 27.2223 71.7133 26.652L71.2536 25.764ZM67.9554 26.5H62.8254V27.5H67.9554V26.5ZM63.3254 27V14.4H62.3254V27H63.3254ZM67.8834 26.348C69.0533 26.348 70.1014 26.1188 71.0127 25.6433L70.5502 24.7567C69.8055 25.1452 68.9215 25.348 67.8834 25.348V26.348ZM71.0177 25.6406C71.9216 25.156 72.6324 24.4877 73.1374 23.6373L72.2775 23.1267C71.8704 23.8123 71.2973 24.356 70.5452 24.7594L71.0177 25.6406ZM73.1391 23.6343C73.6449 22.7692 73.8914 21.7862 73.8914 20.7H72.8914C72.8914 21.6298 72.682 22.4348 72.2758 23.1297L73.1391 23.6343ZM73.8914 20.7C73.8914 19.614 73.6449 18.6355 73.1374 17.7807L72.2775 18.2913C72.682 18.9725 72.8914 19.77 72.8914 20.7H73.8914ZM73.1391 17.7837C72.6339 16.9196 71.9212 16.2487 71.0127 15.7747L70.5502 16.6613C71.2977 17.0513 71.8689 17.5924 72.2758 18.2883L73.1391 17.7837ZM71.0177 15.7774C70.1053 15.2881 69.0554 15.052 67.8834 15.052V16.052C68.9194 16.052 69.8016 16.2599 70.5452 16.6586L71.0177 15.7774ZM67.8834 15.052H64.1574V16.052H67.8834V15.052ZM63.6574 15.552V25.848H64.6574V15.552H63.6574ZM64.1574 26.348H67.8834V25.348H64.1574V26.348ZM77.6965 14.4V13.9H77.1965V14.4H77.6965ZM79.0285 14.4H79.5285V13.9H79.0285V14.4ZM79.0285 27V27.5H79.5285V27H79.0285ZM77.6965 27H77.1965V27.5H77.6965V27ZM77.6965 14.9H79.0285V13.9H77.6965V14.9ZM78.5285 14.4V27H79.5285V14.4H78.5285ZM79.0285 26.5H77.6965V27.5H79.0285V26.5ZM78.1965 27V14.4H77.1965V27H78.1965ZM93.6582 14.4H94.1582V13.9H93.6582V14.4ZM93.6582 27V27.5H94.1582V27H93.6582ZM92.5602 27L92.1683 27.3105L92.3184 27.5H92.5602V27ZM84.4602 16.776L84.8521 16.4655L83.9602 15.3397V16.776H84.4602ZM84.4602 27V27.5H84.9602V27H84.4602ZM83.1282 27H82.6282V27.5H83.1282V27ZM83.1282 14.4V13.9H82.6282V14.4H83.1282ZM84.2262 14.4L84.6177 14.0891L84.4676 13.9H84.2262V14.4ZM92.3442 24.624L91.9526 24.9349L92.8442 26.0578V24.624H92.3442ZM92.3442 14.4V13.9H91.8442V14.4H92.3442ZM93.1582 14.4V27H94.1582V14.4H93.1582ZM93.6582 26.5H92.5602V27.5H93.6582V26.5ZM92.9521 26.6895L84.8521 16.4655L84.0683 17.0865L92.1683 27.3105L92.9521 26.6895ZM83.9602 16.776V27H84.9602V16.776H83.9602ZM84.4602 26.5H83.1282V27.5H84.4602V26.5ZM83.6282 27V14.4H82.6282V27H83.6282ZM83.1282 14.9H84.2262V13.9H83.1282V14.9ZM83.8346 14.7109L91.9526 24.9349L92.7357 24.3131L84.6177 14.0891L83.8346 14.7109ZM92.8442 24.624V14.4H91.8442V24.624H92.8442ZM92.3442 14.9H93.6582V13.9H92.3442V14.9ZM106.645 20.7V20.2H106.145V20.7H106.645ZM107.923 20.7H108.423V20.2H107.923V20.7ZM107.923 25.506L108.253 25.8818L108.423 25.7324V25.506H107.923ZM105.835 26.694L105.997 27.1669L105.997 27.1669L105.835 26.694ZM99.8948 26.28L100.135 25.8415L100.135 25.8415L99.8948 26.28ZM97.5188 23.994L97.0872 24.2466L97.0886 24.2489L97.5188 23.994ZM97.5188 17.424L97.9489 17.6789L97.9503 17.6766L97.5188 17.424ZM105.961 14.76L105.78 15.2262L105.786 15.2285L105.961 14.76ZM107.995 16.11L108.352 16.4597L108.684 16.1206L108.363 15.7715L107.995 16.11ZM107.167 16.956L106.815 17.3117L107.173 17.6647L107.524 17.3057L107.167 16.956ZM100.597 16.164L100.836 16.6032L100.838 16.602L100.597 16.164ZM98.6708 18.036L99.1012 18.2904L99.1029 18.2875L98.6708 18.036ZM100.597 25.236L100.841 24.7995L100.841 24.7995L100.597 25.236ZM106.645 24.948L106.937 25.3538L107.145 25.2041V24.948H106.645ZM106.645 21.2H107.923V20.2H106.645V21.2ZM107.423 20.7V25.506H108.423V20.7H107.423ZM107.593 25.1302C107.058 25.5996 106.42 25.9644 105.672 26.2211L105.997 27.1669C106.857 26.8716 107.611 26.4444 108.253 25.8818L107.593 25.1302ZM105.672 26.2211C104.923 26.4784 104.132 26.608 103.297 26.608V27.608C104.238 27.608 105.139 27.4616 105.997 27.1669L105.672 26.2211ZM103.297 26.608C102.112 26.608 101.062 26.3493 100.135 25.8415L99.6546 26.7185C100.743 27.3147 101.961 27.608 103.297 27.608V26.608ZM100.135 25.8415C99.2041 25.3317 98.4784 24.6326 97.9489 23.7391L97.0886 24.2489C97.7111 25.2994 98.5694 26.1243 99.6546 26.7185L100.135 25.8415ZM97.9503 23.7414C97.422 22.8389 97.1548 21.829 97.1548 20.7H96.1548C96.1548 21.995 96.4635 23.1811 97.0872 24.2466L97.9503 23.7414ZM97.1548 20.7C97.1548 19.5709 97.422 18.5681 97.9489 17.6789L97.0886 17.1691C96.4635 18.2239 96.1548 19.4051 96.1548 20.7H97.1548ZM97.9503 17.6766C98.4801 16.7714 99.2057 16.0674 100.135 15.5585L99.6546 14.6815C98.5678 15.2766 97.7094 16.1086 97.0872 17.1714L97.9503 17.6766ZM100.135 15.5585C101.062 15.051 102.118 14.792 103.315 14.792V13.792C101.968 13.792 100.744 14.085 99.6546 14.6815L100.135 15.5585ZM103.315 14.792C104.22 14.792 105.04 14.9389 105.78 15.2261L106.142 14.2939C105.274 13.9571 104.33 13.792 103.315 13.792V14.792ZM105.786 15.2285C106.52 15.5024 107.131 15.9095 107.627 16.4485L108.363 15.7715C107.755 15.1105 107.009 14.6176 106.136 14.2915L105.786 15.2285ZM107.637 15.7603L106.809 16.6063L107.524 17.3057L108.352 16.4597L107.637 15.7603ZM107.518 16.6003C106.419 15.5144 105.022 14.98 103.369 14.98V15.98C104.787 15.98 105.922 16.4296 106.815 17.3117L107.518 16.6003ZM103.369 14.98C102.271 14.98 101.263 15.2262 100.356 15.726L100.838 16.602C101.586 16.1898 102.426 15.98 103.369 15.98V14.98ZM100.358 15.7248C99.4613 16.2126 98.7526 16.9015 98.2386 17.7845L99.1029 18.2875C99.5249 17.5625 100.1 17.0034 100.836 16.6032L100.358 15.7248ZM98.2403 17.7816C97.7236 18.6561 97.4688 19.633 97.4688 20.7H98.4688C98.4688 19.799 98.6819 18.9999 99.1012 18.2904L98.2403 17.7816ZM97.4688 20.7C97.4688 21.767 97.7236 22.7439 98.2403 23.6184L99.1012 23.1096C98.6819 22.4001 98.4688 21.601 98.4688 20.7H97.4688ZM98.2403 23.6184C98.754 24.4878 99.461 25.1741 100.353 25.6725L100.841 24.7995C100.101 24.3859 99.5235 23.8242 99.1012 23.1096L98.2403 23.6184ZM100.353 25.6725C101.25 26.1739 102.253 26.42 103.351 26.42V25.42C102.408 25.42 101.575 25.2101 100.841 24.7995L100.353 25.6725ZM103.351 26.42C104.733 26.42 105.938 26.0729 106.937 25.3538L106.353 24.5422C105.551 25.1191 104.56 25.42 103.351 25.42V26.42ZM107.145 24.948V20.7H106.145V24.948H107.145ZM116.404 14.4V13.9H115.904V14.4H116.404ZM125.062 15.21L124.828 15.6519L124.832 15.654L125.062 15.21ZM127.438 17.442L127.006 17.6953L127.008 17.6976L127.438 17.442ZM127.438 23.976L127.867 24.2317L127.869 24.2293L127.438 23.976ZM125.062 26.208L125.291 26.6521L125.296 26.6499L125.062 26.208ZM116.404 27H115.904V27.5H116.404V27ZM124.36 25.2L124.591 25.6433L124.596 25.6406L124.36 25.2ZM126.286 23.382L126.716 23.6373L126.717 23.6343L126.286 23.382ZM126.286 18.036L125.854 18.2884L125.856 18.2913L126.286 18.036ZM124.36 16.218L124.123 16.6587L124.128 16.6613L124.36 16.218ZM117.736 15.552V15.052H117.236V15.552H117.736ZM117.736 25.848H117.236V26.348H117.736V25.848ZM116.404 14.9H121.534V13.9H116.404V14.9ZM121.534 14.9C122.797 14.9 123.89 15.1556 124.828 15.6519L125.296 14.7681C124.193 14.1844 122.934 13.9 121.534 13.9V14.9ZM124.832 15.654C125.771 16.1401 126.492 16.8192 127.006 17.6953L127.869 17.1887C127.255 16.1448 126.392 15.3359 125.291 14.766L124.832 15.654ZM127.008 17.6976C127.521 18.56 127.784 19.5559 127.784 20.7H128.784C128.784 19.3961 128.482 18.22 127.867 17.1864L127.008 17.6976ZM127.784 20.7C127.784 21.844 127.521 22.847 127.006 23.7227L127.869 24.2293C128.482 23.185 128.784 22.004 128.784 20.7H127.784ZM127.008 23.7204C126.493 24.5857 125.77 25.267 124.828 25.7661L125.296 26.6499C126.393 26.069 127.254 25.2623 127.867 24.2316L127.008 23.7204ZM124.832 25.764C123.893 26.2497 122.798 26.5 121.534 26.5V27.5C122.933 27.5 124.19 27.2223 125.291 26.652L124.832 25.764ZM121.534 26.5H116.404V27.5H121.534V26.5ZM116.904 27V14.4H115.904V27H116.904ZM121.462 26.348C122.631 26.348 123.68 26.1188 124.591 25.6433L124.128 24.7567C123.384 25.1452 122.5 25.348 121.462 25.348V26.348ZM124.596 25.6406C125.5 25.156 126.211 24.4877 126.715 23.6373L125.856 23.1267C125.449 23.8123 124.875 24.356 124.123 24.7594L124.596 25.6406ZM126.717 23.6343C127.223 22.7692 127.47 21.7862 127.47 20.7H126.47C126.47 21.6298 126.26 22.4348 125.854 23.1297L126.717 23.6343ZM127.47 20.7C127.47 19.614 127.223 18.6355 126.715 17.7807L125.856 18.2913C126.26 18.9725 126.47 19.77 126.47 20.7H127.47ZM126.717 17.7837C126.212 16.9196 125.499 16.2487 124.591 15.7747L124.128 16.6613C124.876 17.0513 125.447 17.5924 125.854 18.2883L126.717 17.7837ZM124.596 15.7774C123.683 15.2881 122.634 15.052 121.462 15.052V16.052C122.498 16.052 123.38 16.2599 124.123 16.6586L124.596 15.7774ZM121.462 15.052H117.736V16.052H121.462V15.052ZM117.236 15.552V25.848H118.236V15.552H117.236ZM117.736 26.348H121.462V25.348H117.736V26.348ZM139.001 23.634L139.457 23.4291L139.324 23.134H139.001V23.634ZM131.981 23.634V23.134H131.657L131.525 23.4291L131.981 23.634ZM130.469 27V27.5H130.792L130.925 27.2049L130.469 27ZM129.083 27L128.628 26.7921L128.305 27.5H129.083V27ZM134.843 14.4V13.9H134.522L134.388 14.1921L134.843 14.4ZM136.157 14.4L136.612 14.1921L136.478 13.9H136.157V14.4ZM141.917 27V27.5H142.695L142.372 26.7921L141.917 27ZM140.513 27L140.057 27.2049L140.189 27.5H140.513V27ZM138.515 22.554V23.054H139.286L138.971 22.35L138.515 22.554ZM135.491 15.786L135.947 15.582L135.491 14.5603L135.034 15.582L135.491 15.786ZM132.467 22.554L132.01 22.35L131.696 23.054H132.467V22.554ZM139.001 23.134H131.981V24.134H139.001V23.134ZM131.525 23.4291L130.013 26.7951L130.925 27.2049L132.437 23.8389L131.525 23.4291ZM130.469 26.5H129.083V27.5H130.469V26.5ZM129.538 27.2079L135.298 14.6079L134.388 14.1921L128.628 26.7921L129.538 27.2079ZM134.843 14.9H136.157V13.9H134.843V14.9ZM135.702 14.6079L141.462 27.2079L142.372 26.7921L136.612 14.1921L135.702 14.6079ZM141.917 26.5H140.513V27.5H141.917V26.5ZM140.969 26.7951L139.457 23.4291L138.545 23.8389L140.057 27.2049L140.969 26.7951ZM138.971 22.35L135.947 15.582L135.034 15.99L138.058 22.758L138.971 22.35ZM135.034 15.582L132.01 22.35L132.923 22.758L135.947 15.99L135.034 15.582ZM132.467 23.054H138.515V22.054H132.467V23.054ZM160.649 14.4L161.123 14.5597L161.345 13.9H160.649V14.4ZM156.401 27V27.5H156.76L156.875 27.1597L156.401 27ZM154.997 27L154.524 27.1624L154.64 27.5H154.997V27ZM151.307 16.254L151.78 16.0916L151.308 14.7178L150.834 16.0909L151.307 16.254ZM147.599 27V27.5H147.955L148.071 27.1631L147.599 27ZM146.213 27L145.739 27.1597L145.854 27.5H146.213V27ZM141.965 14.4V13.9H141.269L141.491 14.5597L141.965 14.4ZM143.333 14.4L143.807 14.2409L143.692 13.9H143.333V14.4ZM146.969 25.236L146.495 25.3951L146.961 26.7837L147.441 25.4L146.969 25.236ZM150.731 14.4V13.9H150.375L150.258 14.236L150.731 14.4ZM151.973 14.4L152.446 14.2388L152.331 13.9H151.973V14.4ZM155.681 25.29L155.208 25.4512L155.682 26.8446L156.154 25.4505L155.681 25.29ZM159.371 14.4V13.9H159.012L158.897 14.2395L159.371 14.4ZM160.175 14.2403L155.927 26.8403L156.875 27.1597L161.123 14.5597L160.175 14.2403ZM156.401 26.5H154.997V27.5H156.401V26.5ZM155.47 26.8376L151.78 16.0916L150.834 16.4164L154.524 27.1624L155.47 26.8376ZM150.834 16.0909L147.126 26.8369L148.071 27.1631L151.779 16.4171L150.834 16.0909ZM147.599 26.5H146.213V27.5H147.599V26.5ZM146.687 26.8403L142.439 14.2403L141.491 14.5597L145.739 27.1597L146.687 26.8403ZM141.965 14.9H143.333V13.9H141.965V14.9ZM142.859 14.5591L146.495 25.3951L147.443 25.0769L143.807 14.2409L142.859 14.5591ZM147.441 25.4L151.203 14.564L150.258 14.236L146.496 25.072L147.441 25.4ZM150.731 14.9H151.973V13.9H150.731V14.9ZM151.5 14.5612L155.208 25.4512L156.154 25.1288L152.446 14.2388L151.5 14.5612ZM156.154 25.4505L159.844 14.5605L158.897 14.2395L155.207 25.1295L156.154 25.4505ZM159.371 14.9H160.649V13.9H159.371V14.9Z" fill="black"/>
</g>
<defs>
<linearGradient id="paint0_linear" x1="16.4102" y1="-16.6934" x2="10.5876" y2="20.6654" gradientUnits="userSpaceOnUse">
<stop stop-color="#0096D9"/>
<stop offset="1" stop-color="#00C198"/>
</linearGradient>
<linearGradient id="paint1_linear" x1="9.13537" y1="13.6181" x2="18.5045" y2="32.4248" gradientUnits="userSpaceOnUse">
<stop stop-color="#002DD9"/>
<stop offset="1" stop-color="#00B2AB"/>
</linearGradient>
<linearGradient id="paint2_linear" x1="23.8071" y1="-3.42432" x2="6.08252" y2="38.1714" gradientUnits="userSpaceOnUse">
<stop stop-color="#3482C0"/>
<stop offset="0.45" stop-color="#96BEDE"/>
<stop offset="0.83" stop-color="#E1EDF6"/>
<stop offset="1" stop-color="white"/>
</linearGradient>
<linearGradient id="paint3_linear" x1="1361.37" y1="132.275" x2="-132.261" y2="2238.51" gradientUnits="userSpaceOnUse">
<stop stop-color="#3482C0"/>
<stop offset="0.45" stop-color="#96BEDE"/>
<stop offset="0.83" stop-color="#E1EDF6"/>
<stop offset="1" stop-color="white"/>
</linearGradient>
<linearGradient id="paint4_linear" x1="25.6731" y1="3.26808" x2="10.5949" y2="32.7123" gradientUnits="userSpaceOnUse">
<stop stop-color="#569FA1"/>
<stop offset="0.36" stop-color="#97C4C5"/>
<stop offset="0.8" stop-color="#E2EEEF"/>
<stop offset="1" stop-color="white"/>
</linearGradient>
<radialGradient id="paint5_radial" cx="0" cy="0" r="1" gradientUnits="userSpaceOnUse" gradientTransform="translate(21.5938 32.382) scale(27.8184 27.5367)">
<stop stop-color="#FFFF00"/>
<stop offset="1"/>
</radialGradient>
<clipPath id="clip0">
<rect width="195" height="37" fill="white"/>
</clipPath>
</defs>
</svg>
